<svg xmlns="http://www.w3.org/2000/svg" viewBox="0 0 48 48" role="img" aria-labelledby="eonfolk-mark-title eonfolk-mark-description">
	<title id="eonfolk-mark-title">EONFOLK</title>
	<desc id="eonfolk-mark-description">An open age ring surrounding three joined people and a shared hearth.</desc>
	<rect x="1.5" y="1.5" width="45" height="45" rx="11" fill="#181c18" stroke="#f4ecd9" stroke-opacity=".42" />
	<path d="M19.1 6.8C10.6 8.9 4.5 16.5 4.5 25.3c0 10.6 8.6 19.2 19.2 19.2s19.2-8.6 19.2-19.2S34.3 6.1 23.7 6.1" fill="none" stroke="#f4ecd9" stroke-width="2.25" stroke-linecap="round" />
	<path d="M24 17.2v18.2M24 23.5l-7.1-4.1M24 23.5l7.1-4.1M24 29.8l-6.2 5.5M24 29.8l6.2 5.5" fill="none" stroke="#d7a944" stroke-width="2.45" stroke-linecap="round" stroke-linejoin="round" />
	<circle cx="24" cy="13.3" r="2.7" fill="#d7a944" />
	<circle cx="14.2" cy="17.5" r="2.55" fill="#d7a944" />
	<circle cx="33.8" cy="17.5" r="2.55" fill="#d7a944" />
	<path d="m24 22.8 3.55 3.55L24 29.9l-3.55-3.55Z" fill="#924832" stroke="#f4ecd9" stroke-width="1.15" stroke-linejoin="round" />
</svg>
